<svg width="152" height="47" viewBox="0 0 152 47" fill="none" xmlns="http://www.w3.org/2000/svg">
<path d="M72.9653 10.3453C72.9653 9.68269 73.1936 9.1348 73.6637 8.70158C74.1337 8.26836 74.7784 8.05176 75.5842 8.05176C76.3765 8.05176 77.0212 8.26836 77.4912 8.70158C77.9613 9.1348 78.203 9.68269 78.203 10.3453C78.203 11.0206 77.9613 11.5685 77.4778 12.0017C76.9943 12.4349 76.3631 12.6515 75.5707 12.6515C74.7784 12.6515 74.1472 12.4349 73.6637 12.0017C73.2071 11.5812 72.9653 11.0206 72.9653 10.3453ZM77.9344 31.2543H73.2474V14.6392H77.9344V31.2543Z" fill="white"/>
<path d="M80.606 22.8302C80.606 20.2819 81.2506 18.2304 82.5264 16.676C83.8023 15.1215 85.5213 14.3442 87.697 14.3442C89.6174 14.3442 91.1082 14.9686 92.1826 16.2173L92.3706 14.65H96.6144V30.7045C96.6144 32.1571 96.2653 33.4185 95.5669 34.5016C94.8686 35.5719 93.8882 36.4001 92.6257 36.9607C91.3633 37.5214 89.886 37.8017 88.1939 37.8017C86.9046 37.8017 85.6556 37.5596 84.4469 37.0754C83.2248 36.5912 82.3116 35.9669 81.6804 35.1896L83.7486 32.4884C84.917 33.7243 86.3271 34.3487 87.9924 34.3487C89.228 34.3487 90.1949 34.0301 90.8933 33.4058C91.5782 32.7814 91.9274 31.8895 91.9274 30.73V29.8381C90.853 30.9976 89.4294 31.571 87.6701 31.571C85.5616 31.571 83.8694 30.7937 82.5667 29.2265C81.264 27.672 80.6194 25.5951 80.6194 23.0213V22.8302H80.606ZM85.2796 23.1487C85.2796 24.6523 85.6019 25.8372 86.2331 26.6909C86.8643 27.5446 87.7373 27.9778 88.8519 27.9778C90.2755 27.9778 91.2962 27.4682 91.914 26.4616V19.4664C91.2828 18.4471 90.2755 17.9501 88.8922 17.9501C87.7641 17.9501 86.8912 18.3834 86.2465 19.2625C85.6019 20.1162 85.2796 21.4286 85.2796 23.1487Z" fill="white"/>
<path d="M104.001 14.6373L104.149 16.5613C105.398 15.0833 107.076 14.3315 109.185 14.3315C111.038 14.3315 112.421 14.854 113.321 15.886C114.221 16.9181 114.691 18.4599 114.718 20.524V31.2525H110.044V20.6259C110.044 19.683 109.829 19.0077 109.4 18.5745C108.97 18.154 108.245 17.9374 107.251 17.9374C105.935 17.9374 104.954 18.4726 104.296 19.5301V31.2397H99.6227V14.6373H104.001Z" fill="white"/>
<path d="M117.726 10.3428C117.726 9.68025 117.955 9.13236 118.425 8.69914C118.895 8.26592 119.539 8.04932 120.345 8.04932C121.137 8.04932 121.782 8.26592 122.252 8.69914C122.722 9.13236 122.964 9.68025 122.964 10.3428C122.964 11.0181 122.722 11.566 122.239 11.9992C121.755 12.4325 121.124 12.6491 120.332 12.6491C119.539 12.6491 118.908 12.4325 118.425 11.9992C117.968 11.5788 117.726 11.0181 117.726 10.3428ZM122.695 31.2519H118.008V14.6368H122.695V31.2519Z" fill="white"/>
<path d="M131.655 10.5596V14.6369H134.649V17.886H131.655V26.1809C131.655 26.7925 131.775 27.2384 132.031 27.506C132.272 27.7736 132.756 27.901 133.454 27.901C133.978 27.901 134.435 27.8628 134.824 27.7991V31.1629C133.911 31.4304 132.957 31.5578 131.99 31.5578C128.713 31.5578 127.035 29.9906 126.981 26.8434V17.8988H124.429V14.6497H126.981V10.5723H131.655V10.5596Z" fill="white"/>
<path d="M144.802 31.5583C142.236 31.5583 140.141 30.8066 138.53 29.3158C136.918 27.825 136.112 25.8373 136.112 23.34V22.9067C136.112 21.2376 136.448 19.7468 137.133 18.4344C137.818 17.122 138.772 16.1027 140.021 15.3892C141.27 14.6756 142.693 14.3188 144.278 14.3188C146.668 14.3188 148.562 15.0324 149.932 16.4722C151.302 17.8993 152 19.9379 152 22.5627V24.372H140.853C141.001 25.4551 141.458 26.3215 142.223 26.9841C142.989 27.6339 143.942 27.9652 145.11 27.9652C146.91 27.9652 148.32 27.3408 149.327 26.1049L151.624 28.5513C150.926 29.4942 149.972 30.2332 148.777 30.7556C147.595 31.2908 146.265 31.5583 144.802 31.5583ZM144.278 17.912C143.351 17.912 142.599 18.2051 142.022 18.8039C141.444 19.4028 141.082 20.2565 140.907 21.365H147.407V21.0082C147.38 20.0271 147.112 19.2626 146.561 18.7147C146.024 18.1796 145.258 17.912 144.278 17.912Z" fill="white"/>
<path opacity="0.5" d="M48.7794 0.312549L36.8417 42.6024C36.781 42.7943 36.5382 42.8519 36.3965 42.7175L28.4043 35.1349L34.3934 13.942C34.4541 13.7501 34.272 13.5773 34.0697 13.6349L11.732 19.3171L3.78031 11.7728C3.63868 11.6385 3.69938 11.4081 3.90171 11.3505L48.4556 0.00540597C48.658 -0.032987 48.8401 0.139781 48.7794 0.312549Z" fill="#00B37E"/>
<path opacity="0.5" d="M28.4039 35.1348L25.3285 46.0768C25.2678 46.2687 25.025 46.3263 24.8833 46.192L0.0771898 22.6763C-0.0644439 22.5419 -0.00374403 22.3115 0.19859 22.254L11.7316 19.3169L28.4039 35.1348Z" fill="#00B37E"/>
<path d="M34.3921 13.9419L28.403 35.1348L11.7307 19.3169L34.0684 13.6348C34.2707 13.5772 34.4528 13.75 34.3921 13.9419Z" fill="#00B37E"/>
</svg>
