<svg width="40" height="40" viewBox="0 0 40 40" fill="none" xmlns="http://www.w3.org/2000/svg">
<g clip-path="url(#clip0_201_6299)">
<path fill-rule="evenodd" clip-rule="evenodd" d="M24.2758 28.3461C17.863 28.3461 16.5185 25.4033 16.5185 22.9326C16.5185 22.6982 16.7073 22.5094 16.9417 22.5094H18.8363C19.0446 22.5094 19.2204 22.6624 19.253 22.8675C19.5394 24.7979 20.389 25.7712 24.2693 25.7712C27.3586 25.7712 28.6705 25.0746 28.6705 23.4339C28.6705 22.4899 28.2961 21.79 23.4978 21.3212C19.4841 20.9241 17.0036 20.0419 17.0036 16.829C17.0036 13.8732 19.4971 12.1121 23.6769 12.1121C28.371 12.1121 30.6952 13.7397 30.9882 17.2424C30.998 17.3628 30.9557 17.48 30.8743 17.5679C30.7929 17.6525 30.679 17.7046 30.5618 17.7046H28.6607C28.4621 17.7046 28.2896 17.5646 28.2505 17.3758C27.7915 15.3478 26.6847 14.6968 23.6704 14.6968C20.2979 14.6968 19.9073 15.8719 19.9073 16.7508C19.9073 17.8186 20.3695 18.1311 24.9204 18.7333C29.4257 19.3323 31.5644 20.1754 31.5644 23.3428C31.5644 26.5362 28.9016 28.3656 24.2563 28.3656L24.2758 28.3461ZM19.7478 40C19.2106 40 18.68 39.86 18.2113 39.5898L13.3186 36.6926C12.5862 36.2825 12.9442 36.1392 13.1851 36.0546C14.1585 35.7128 14.357 35.6379 15.3987 35.0455C15.5094 34.9836 15.6526 35.0064 15.7633 35.0715L19.5231 37.3014C19.6599 37.3762 19.8519 37.3762 19.9789 37.3014L34.6374 28.8409C34.7741 28.7628 34.862 28.6065 34.862 28.4438V11.5326C34.862 11.3634 34.7741 11.2136 34.6341 11.129L19.9789 2.67502C19.8422 2.59364 19.6631 2.59364 19.5264 2.67502L4.87766 11.129C4.73443 11.2104 4.64654 11.3666 4.64654 11.5294V28.4438C4.64654 28.6065 4.73443 28.7595 4.87441 28.8377L8.88816 31.1554C11.0659 32.2459 12.4006 30.9601 12.4006 29.671V12.9747C12.4006 12.7371 12.5862 12.5515 12.827 12.5515H14.6825C14.9137 12.5515 15.1057 12.7338 15.1057 12.9747V29.6775C15.1057 32.5845 13.5204 34.2512 10.7665 34.2512C9.92008 34.2512 9.2495 34.2512 7.38748 33.3332L3.53649 31.1164C2.58595 30.5662 2 29.5408 2 28.4438V11.5294C2 10.4291 2.58595 9.40042 3.53649 8.85679L18.208 0.393074C19.1358 -0.131025 20.3695 -0.131025 21.2908 0.393074L35.946 8.86004C36.8933 9.40693 37.4825 10.4291 37.4825 11.5326V28.447C37.4825 29.5441 36.8933 30.5662 35.946 31.1196L21.2908 39.5833C20.822 39.8535 20.2881 39.9935 19.7478 39.9935V40Z" fill="#689F63"/>
</g>
<defs>
<clipPath id="clip0_201_6299">
<rect width="40" height="40" fill="white"/>
</clipPath>
</defs>
</svg>
